<svg width="50" height="50" viewBox="0 0 50 50" fill="none" xmlns="http://www.w3.org/2000/svg">
<path d="M9.61667 39.5832C8.65694 39.5832 7.85625 39.2623 7.21458 38.6207C6.57292 37.979 6.25139 37.1776 6.25 36.2165V13.7832C6.25 12.8234 6.57153 12.0228 7.21458 11.3811C7.85764 10.7394 8.65764 10.4179 9.61458 10.4165H40.3854C41.3437 10.4165 42.1438 10.738 42.7854 11.3811C43.4271 12.0241 43.7486 12.8248 43.75 13.7832V36.2186C43.75 37.1769 43.4285 37.9776 42.7854 38.6207C42.1424 39.2637 41.3424 39.5846 40.3854 39.5832H9.61667ZM9.61667 37.4998H40.3854C40.7049 37.4998 40.9986 37.3665 41.2667 37.0998C41.5347 36.8332 41.6681 36.5387 41.6667 36.2165V16.6665H8.33333V36.2186C8.33333 36.538 8.46667 36.8318 8.73333 37.0998C9 37.3679 9.29375 37.5012 9.61458 37.4998M15.625 33.9332L14.1896 32.4998L19.5583 27.0832L14.1417 21.6665L15.6271 20.2332L22.4771 27.0832L15.625 33.9332ZM26.0417 34.3748V32.2915H36.4583V34.3748H26.0417Z" fill="#0B8915"/>
</svg>
